<?xml version="1.0" standalone="no"?>
<!DOCTYPE svg PUBLIC "-//W3C//DTD SVG 20010904//EN"
 "http://www.w3.org/TR/2001/REC-SVG-20010904/DTD/svg10.dtd">
<svg version="1.0" xmlns="http://www.w3.org/2000/svg"
 width="200.000000pt" height="200.000000pt" viewBox="0 0 200.000000 200.000000"
 preserveAspectRatio="xMidYMid meet">
<metadata>
Created by potrace 1.11, written by Peter Selinger 2001-2013
</metadata>
<g transform="translate(0.000000,200.000000) scale(0.100000,-0.100000)"
fill="#000000" stroke="none">
<path d="M430 1880 c-24 -24 -22 10 -24 -410 -1 -191 3 -344 8 -355 20 -42 32
-44 259 -45 l217 0 0 -80 c0 -69 -2 -80 -17 -81 -50 -3 -57 -5 -60 -16 -5 -15
-10 -14 202 -14 190 0 177 -1 172 14 -3 11 -10 13 -59 16 -16 1 -18 12 -18 81
l0 80 208 0 c114 0 217 3 230 6 45 13 48 35 47 423 l-1 364 -23 18 c-22 18
-52 19 -572 19 -536 0 -549 0 -569 -20z m1128 -32 c5 -13 8 -182 8 -376 -1
-301 -3 -354 -16 -362 -20 -13 -1080 -13 -1100 0 -22 14 -22 736 0 750 9 6
233 10 558 10 l542 0 8 -22z m-477 -810 c1 -50 -2 -123 -6 -127 -2 -2 -37 -4
-77 -4 l-73 -2 -3 83 -3 82 81 0 80 0 1 -32z"/>
<path d="M1073 1698 c-23 -36 -169 -419 -163 -428 11 -18 23 5 85 160 93 234
105 269 95 275 -5 3 -12 0 -17 -7z"/>
<path d="M678 1569 c-71 -39 -128 -77 -128 -84 0 -7 21 -24 48 -38 26 -14 83
-45 127 -70 73 -42 95 -48 95 -28 0 4 -39 29 -87 56 -153 85 -150 83 -127 92
52 21 214 119 214 131 0 6 -3 12 -7 12 -5 0 -65 -32 -135 -71z"/>
<path d="M1180 1627 c0 -13 15 -23 135 -87 107 -58 108 -49 -20 -120 -63 -35
-115 -67 -115 -71 0 -21 22 -15 84 21 38 22 70 40 72 40 1 0 31 16 65 36 69
41 68 43 -11 86 -25 14 -79 44 -121 66 -83 46 -89 48 -89 29z"/>
<path d="M737 623 c-14 -13 -6 -23 18 -23 29 0 27 17 28 -226 0 -94 -3 -183
-7 -197 -4 -16 -19 -33 -37 -43 -23 -12 -28 -19 -20 -27 18 -18 78 19 90 56 7
17 11 117 11 234 l0 204 22 -3 c15 -2 24 3 26 15 3 15 -5 17 -61 17 -35 0 -67
-3 -70 -7z"/>
<path d="M907 623 c-14 -13 -6 -23 18 -23 29 0 26 20 28 -212 1 -87 5 -158 10
-158 4 0 11 0 17 0 5 0 10 34 12 76 l3 77 71 0 c39 0 76 -3 82 -7 6 -4 28 -36
47 -70 41 -74 62 -96 70 -74 3 8 -12 46 -35 84 -22 38 -40 72 -40 76 0 4 9 9
19 13 49 15 70 119 36 171 -28 43 -72 54 -208 54 -68 0 -127 -3 -130 -7z m286
-46 c31 -20 41 -59 27 -103 -16 -47 -40 -57 -142 -60 l-88 -2 0 94 0 94 89 -3
c61 -2 97 -8 114 -20z"/>
</g>
</svg>
